<?xml version="1.0" encoding="utf-8"?>
<svg version="1.1" xmlns:xlink="http://www.w3.org/1999/xlink" width="35px" height="41px" xmlns="http://www.w3.org/2000/svg">
  <defs>
    <pattern id="BGPattern" patternUnits="userSpaceOnUse" alignment="0 0" imageRepeat="None" />
    <mask fill="white" id="Clip19">
      <path d="M 26.341145833333332 1.5558035714285727  L 33.45052083333333 8.694196428571427  C 33.87586805555556 9.12127976190476  34.24045138888889 9.70089285714286  34.54427083333333 10.433035714285714  C 34.84809027777778 11.165178571428573  35 11.836309523809522  35 12.446428571428573  L 35 38.80357142857143  C 35 39.413690476190474  34.787326388888886 39.932291666666664  34.36197916666667 40.359375  C 33.93663194444445 40.786458333333336  33.42013888888889 41  32.8125 41  L 2.1875 41  C 1.5798611111111114 41  1.0633680555555556 40.786458333333336  0.6380208333333334 40.359375  C 0.21267361111111108 39.932291666666664  0 39.413690476190474  0 38.80357142857143  L 0 2.196428571428573  C 0 1.5863095238095228  0.21267361111111108 1.0677083333333317  0.6380208333333334 0.640625  C 1.0633680555555556 0.21354166666666818  1.5798611111111114 0  2.1875 0  L 22.604166666666668 0  C 23.211805555555557 0  23.880208333333332 0.15252976190476364  24.609375 0.45758928571428636  C 25.338541666666668 0.7626488095238091  25.915798611111114 1.1287202380952364  26.341145833333332 1.5558035714285727  Z M 24.267578125 3.614955357142859  C 24.085286458333332 3.431919642857141  23.773871527777782 3.2641369047618998  23.333333333333332 3.111607142857141  L 23.333333333333332 11.714285714285714  L 31.901041666666668 11.714285714285714  C 31.74913194444445 11.2719494047619  31.58203125 10.95926339285714  31.399739583333332 10.776227678571427  L 24.267578125 3.614955357142859  Z M 3 38  L 32 38  L 32 14.64285714285714  L 22.604166666666668 14.64285714285714  C 21.99652777777778 14.64285714285714  21.48003472222222 14.429315476190473  21.0546875 14.00223214285714  C 20.62934027777778 13.575148809523808  20.416666666666668 13.056547619047613  20.416666666666668 12.446428571428573  L 20.416666666666668 3  L 3 3  L 3 38  Z M 17.044270833333336 19.05859375  C 17.879774305555557 21.56008184523809  18.98871527777778 23.375186011904763  20.37109375 24.50390625  C 20.872395833333336 24.900483630952383  21.510416666666668 25.327566964285715  22.28515625 25.78515625  C 23.181423611111114 25.678385416666664  24.070095486111114 25.625  24.951171875 25.625  C 27.184244791666668 25.625  28.528645833333332 25.998697916666664  28.984375 26.74609375  C 29.227430555555557 27.081659226190474  29.242621527777782 27.478236607142854  29.029947916666668 27.935825892857146  C 29.029947916666668 27.951078869047617  29.022352430555557 27.96633184523809  29.007161458333332 27.981584821428573  L 28.961588541666668 28.02734375  L 28.961588541666668 28.050223214285715  C 28.870442708333332 28.62983630952381  28.33116319444445 28.919642857142854  27.34375 28.919642857142854  C 26.614583333333332 28.919642857142854  25.741102430555557 28.76711309523809  24.723307291666668 28.462053571428573  C 23.705512152777782 28.156994047619044  22.718098958333332 27.752790178571427  21.761067708333332 27.249441964285715  C 18.40386284722222 27.615513392857146  15.426432291666666 28.2485119047619  12.828776041666666 29.1484375  C 10.504557291666666 33.144717261904766  8.666449652777779 35.142857142857146  7.314453125 35.142857142857146  C 7.086588541666667 35.142857142857146  6.873914930555555 35.089471726190474  6.676432291666667 34.982700892857146  L 6.129557291666667 34.70814732142857  C 6.1143663194444455 34.69289434523809  6.068793402777779 34.65476190476191  5.992838541666667 34.59375  C 5.8409288194444455 34.441220238095234  5.795355902777779 34.166666666666664  5.856119791666667 33.770089285714285  C 5.992838541666667 33.159970238095234  6.418185763888889 32.46214657738095  7.132161458333333 31.676618303571427  C 7.846137152777779 30.89109002976191  8.848741319444445 30.155133928571427  10.139973958333334 29.46875  C 10.352647569444445 29.331473214285715  10.527343750000002 29.377232142857146  10.6640625 29.606026785714285  C 10.694444444444445 29.636532738095237  10.709635416666666 29.667038690476186  10.709635416666666 29.697544642857146  C 11.499565972222225 28.401041666666664  12.31228298611111 26.89862351190476  13.147786458333334 25.190290178571427  C 14.180772569444445 23.115885416666664  14.970703125 21.117745535714285  15.517578125 19.195870535714285  C 15.152994791666666 17.945126488095237  14.921332465277779 16.72870163690476  14.822591145833334 15.54659598214286  C 14.723849826388891 14.36449032738095  14.77322048611111 13.392113095238095  14.970703125 12.629464285714286  C 15.137803819444445 12.019345238095237  15.45681423611111 11.714285714285714  15.927734375 11.714285714285714  L 16.40625 11.714285714285714  L 16.429036458333336 11.714285714285714  C 16.778428819444446 11.714285714285714  17.044270833333336 11.828683035714286  17.2265625 12.057477678571427  C 17.500000000000004 12.377790178571427  17.568359375000004 12.896391369047613  17.431640625 13.61328125  C 17.401258680555557 13.70479910714286  17.37087673611111 13.76581101190476  17.340494791666664 13.796316964285714  C 17.35568576388889 13.84207589285714  17.36328125 13.903087797619046  17.36328125 13.979352678571427  L 17.36328125 14.66573660714286  C 17.332899305555557 16.541852678571427  17.2265625 18.006138392857142  17.044270833333336 19.05859375  Z M 8.3740234375 32.214285714285715  C 7.819552951388889 32.885416666666664  7.443576388888889 33.449776785714285  7.24609375 33.90736607142857  C 8.036024305555555 33.541294642857146  9.076605902777779 32.336309523809526  10.367838541666666 30.292410714285715  C 9.593098958333334 30.902529761904763  8.92849392361111 31.543154761904763  8.3740234375 32.214285714285715  Z M 16.315104166666664 12.8125  L 16.315104166666664 12.858258928571427  C 16.087239583333336 13.498883928571427  16.07204861111111 14.50558035714286  16.26953125 15.878348214285714  C 16.284722222222225 15.771577380952378  16.337890625 15.4360119047619  16.429036458333336 14.871651785714286  C 16.429036458333336 14.82589285714286  16.48220486111111 14.497953869047613  16.588541666666664 13.887834821428573  C 16.60373263888889 13.826822916666664  16.634114583333336 13.76581101190476  16.6796875 13.70479910714286  C 16.66449652777778 13.689546130952378  16.656901041666664 13.6742931547619  16.656901041666664 13.659040178571427  C 16.641710069444446 13.628534226190473  16.634114583333336 13.60565476190476  16.634114583333336 13.590401785714286  C 16.61892361111111 13.254836309523808  16.520182291666664 12.980282738095237  16.337890625 12.766741071428573  C 16.337890625 12.781994047619046  16.33029513888889 12.797247023809522  16.315104166666664 12.8125  Z M 14.514973958333334 26.082589285714285  C 14.059244791666666 26.93675595238095  13.717447916666666 27.569754464285715  13.489583333333334 27.981584821428573  C 15.540364583333334 27.157924107142854  17.69748263888889 26.540178571428573  19.9609375 26.128348214285715  C 19.930555555555557 26.113095238095237  19.831814236111114 26.040643601190474  19.664713541666668 25.910993303571427  C 19.49761284722222 25.781343005952383  19.37608506944445 25.678385416666664  19.300130208333332 25.602120535714285  C 18.14561631944445 24.580171130952383  17.180989583333336 23.237909226190474  16.40625 21.575334821428573  C 15.99609375 22.887090773809522  15.365668402777779 24.389508928571427  14.514973958333334 26.082589285714285  Z M 28.255208333333332 27.684151785714285  C 28.255208333333332 27.66889880952381  28.240017361111114 27.64601934523809  28.209635416666668 27.615513392857146  C 27.845052083333332 27.249441964285715  26.781684027777782 27.06640625  25.01953125 27.06640625  C 26.17404513888889 27.49348958333333  27.115885416666668 27.70703125  27.845052083333332 27.70703125  C 28.05772569444445 27.70703125  28.19444444444445 27.69940476190476  28.255208333333332 27.684151785714285  Z " fill-rule="evenodd" />
    </mask>
  </defs>
  <g transform="matrix(1 0 0 1 -1071 -518 )">
    <path d="M 26.341145833333332 1.5558035714285727  L 33.45052083333333 8.694196428571427  C 33.87586805555556 9.12127976190476  34.24045138888889 9.70089285714286  34.54427083333333 10.433035714285714  C 34.84809027777778 11.165178571428573  35 11.836309523809522  35 12.446428571428573  L 35 38.80357142857143  C 35 39.413690476190474  34.787326388888886 39.932291666666664  34.36197916666667 40.359375  C 33.93663194444445 40.786458333333336  33.42013888888889 41  32.8125 41  L 2.1875 41  C 1.5798611111111114 41  1.0633680555555556 40.786458333333336  0.6380208333333334 40.359375  C 0.21267361111111108 39.932291666666664  0 39.413690476190474  0 38.80357142857143  L 0 2.196428571428573  C 0 1.5863095238095228  0.21267361111111108 1.0677083333333317  0.6380208333333334 0.640625  C 1.0633680555555556 0.21354166666666818  1.5798611111111114 0  2.1875 0  L 22.604166666666668 0  C 23.211805555555557 0  23.880208333333332 0.15252976190476364  24.609375 0.45758928571428636  C 25.338541666666668 0.7626488095238091  25.915798611111114 1.1287202380952364  26.341145833333332 1.5558035714285727  Z M 24.267578125 3.614955357142859  C 24.085286458333332 3.431919642857141  23.773871527777782 3.2641369047618998  23.333333333333332 3.111607142857141  L 23.333333333333332 11.714285714285714  L 31.901041666666668 11.714285714285714  C 31.74913194444445 11.2719494047619  31.58203125 10.95926339285714  31.399739583333332 10.776227678571427  L 24.267578125 3.614955357142859  Z M 3 38  L 32 38  L 32 14.64285714285714  L 22.604166666666668 14.64285714285714  C 21.99652777777778 14.64285714285714  21.48003472222222 14.429315476190473  21.0546875 14.00223214285714  C 20.62934027777778 13.575148809523808  20.416666666666668 13.056547619047613  20.416666666666668 12.446428571428573  L 20.416666666666668 3  L 3 3  L 3 38  Z M 17.044270833333336 19.05859375  C 17.879774305555557 21.56008184523809  18.98871527777778 23.375186011904763  20.37109375 24.50390625  C 20.872395833333336 24.900483630952383  21.510416666666668 25.327566964285715  22.28515625 25.78515625  C 23.181423611111114 25.678385416666664  24.070095486111114 25.625  24.951171875 25.625  C 27.184244791666668 25.625  28.528645833333332 25.998697916666664  28.984375 26.74609375  C 29.227430555555557 27.081659226190474  29.242621527777782 27.478236607142854  29.029947916666668 27.935825892857146  C 29.029947916666668 27.951078869047617  29.022352430555557 27.96633184523809  29.007161458333332 27.981584821428573  L 28.961588541666668 28.02734375  L 28.961588541666668 28.050223214285715  C 28.870442708333332 28.62983630952381  28.33116319444445 28.919642857142854  27.34375 28.919642857142854  C 26.614583333333332 28.919642857142854  25.741102430555557 28.76711309523809  24.723307291666668 28.462053571428573  C 23.705512152777782 28.156994047619044  22.718098958333332 27.752790178571427  21.761067708333332 27.249441964285715  C 18.40386284722222 27.615513392857146  15.426432291666666 28.2485119047619  12.828776041666666 29.1484375  C 10.504557291666666 33.144717261904766  8.666449652777779 35.142857142857146  7.314453125 35.142857142857146  C 7.086588541666667 35.142857142857146  6.873914930555555 35.089471726190474  6.676432291666667 34.982700892857146  L 6.129557291666667 34.70814732142857  C 6.1143663194444455 34.69289434523809  6.068793402777779 34.65476190476191  5.992838541666667 34.59375  C 5.8409288194444455 34.441220238095234  5.795355902777779 34.166666666666664  5.856119791666667 33.770089285714285  C 5.992838541666667 33.159970238095234  6.418185763888889 32.46214657738095  7.132161458333333 31.676618303571427  C 7.846137152777779 30.89109002976191  8.848741319444445 30.155133928571427  10.139973958333334 29.46875  C 10.352647569444445 29.331473214285715  10.527343750000002 29.377232142857146  10.6640625 29.606026785714285  C 10.694444444444445 29.636532738095237  10.709635416666666 29.667038690476186  10.709635416666666 29.697544642857146  C 11.499565972222225 28.401041666666664  12.31228298611111 26.89862351190476  13.147786458333334 25.190290178571427  C 14.180772569444445 23.115885416666664  14.970703125 21.117745535714285  15.517578125 19.195870535714285  C 15.152994791666666 17.945126488095237  14.921332465277779 16.72870163690476  14.822591145833334 15.54659598214286  C 14.723849826388891 14.36449032738095  14.77322048611111 13.392113095238095  14.970703125 12.629464285714286  C 15.137803819444445 12.019345238095237  15.45681423611111 11.714285714285714  15.927734375 11.714285714285714  L 16.40625 11.714285714285714  L 16.429036458333336 11.714285714285714  C 16.778428819444446 11.714285714285714  17.044270833333336 11.828683035714286  17.2265625 12.057477678571427  C 17.500000000000004 12.377790178571427  17.568359375000004 12.896391369047613  17.431640625 13.61328125  C 17.401258680555557 13.70479910714286  17.37087673611111 13.76581101190476  17.340494791666664 13.796316964285714  C 17.35568576388889 13.84207589285714  17.36328125 13.903087797619046  17.36328125 13.979352678571427  L 17.36328125 14.66573660714286  C 17.332899305555557 16.541852678571427  17.2265625 18.006138392857142  17.044270833333336 19.05859375  Z M 8.3740234375 32.214285714285715  C 7.819552951388889 32.885416666666664  7.443576388888889 33.449776785714285  7.24609375 33.90736607142857  C 8.036024305555555 33.541294642857146  9.076605902777779 32.336309523809526  10.367838541666666 30.292410714285715  C 9.593098958333334 30.902529761904763  8.92849392361111 31.543154761904763  8.3740234375 32.214285714285715  Z M 16.315104166666664 12.8125  L 16.315104166666664 12.858258928571427  C 16.087239583333336 13.498883928571427  16.07204861111111 14.50558035714286  16.26953125 15.878348214285714  C 16.284722222222225 15.771577380952378  16.337890625 15.4360119047619  16.429036458333336 14.871651785714286  C 16.429036458333336 14.82589285714286  16.48220486111111 14.497953869047613  16.588541666666664 13.887834821428573  C 16.60373263888889 13.826822916666664  16.634114583333336 13.76581101190476  16.6796875 13.70479910714286  C 16.66449652777778 13.689546130952378  16.656901041666664 13.6742931547619  16.656901041666664 13.659040178571427  C 16.641710069444446 13.628534226190473  16.634114583333336 13.60565476190476  16.634114583333336 13.590401785714286  C 16.61892361111111 13.254836309523808  16.520182291666664 12.980282738095237  16.337890625 12.766741071428573  C 16.337890625 12.781994047619046  16.33029513888889 12.797247023809522  16.315104166666664 12.8125  Z M 14.514973958333334 26.082589285714285  C 14.059244791666666 26.93675595238095  13.717447916666666 27.569754464285715  13.489583333333334 27.981584821428573  C 15.540364583333334 27.157924107142854  17.69748263888889 26.540178571428573  19.9609375 26.128348214285715  C 19.930555555555557 26.113095238095237  19.831814236111114 26.040643601190474  19.664713541666668 25.910993303571427  C 19.49761284722222 25.781343005952383  19.37608506944445 25.678385416666664  19.300130208333332 25.602120535714285  C 18.14561631944445 24.580171130952383  17.180989583333336 23.237909226190474  16.40625 21.575334821428573  C 15.99609375 22.887090773809522  15.365668402777779 24.389508928571427  14.514973958333334 26.082589285714285  Z M 28.255208333333332 27.684151785714285  C 28.255208333333332 27.66889880952381  28.240017361111114 27.64601934523809  28.209635416666668 27.615513392857146  C 27.845052083333332 27.249441964285715  26.781684027777782 27.06640625  25.01953125 27.06640625  C 26.17404513888889 27.49348958333333  27.115885416666668 27.70703125  27.845052083333332 27.70703125  C 28.05772569444445 27.70703125  28.19444444444445 27.69940476190476  28.255208333333332 27.684151785714285  Z " fill-rule="nonzero" fill="rgba(0, 0, 0, 1)" stroke="none" transform="matrix(1 0 0 1 1071 518 )" class="fill" />
    <path d="M 26.341145833333332 1.5558035714285727  L 33.45052083333333 8.694196428571427  C 33.87586805555556 9.12127976190476  34.24045138888889 9.70089285714286  34.54427083333333 10.433035714285714  C 34.84809027777778 11.165178571428573  35 11.836309523809522  35 12.446428571428573  L 35 38.80357142857143  C 35 39.413690476190474  34.787326388888886 39.932291666666664  34.36197916666667 40.359375  C 33.93663194444445 40.786458333333336  33.42013888888889 41  32.8125 41  L 2.1875 41  C 1.5798611111111114 41  1.0633680555555556 40.786458333333336  0.6380208333333334 40.359375  C 0.21267361111111108 39.932291666666664  0 39.413690476190474  0 38.80357142857143  L 0 2.196428571428573  C 0 1.5863095238095228  0.21267361111111108 1.0677083333333317  0.6380208333333334 0.640625  C 1.0633680555555556 0.21354166666666818  1.5798611111111114 0  2.1875 0  L 22.604166666666668 0  C 23.211805555555557 0  23.880208333333332 0.15252976190476364  24.609375 0.45758928571428636  C 25.338541666666668 0.7626488095238091  25.915798611111114 1.1287202380952364  26.341145833333332 1.5558035714285727  Z " stroke-width="0" stroke-dasharray="0" stroke="rgba(255, 255, 255, 0)" fill="none" transform="matrix(1 0 0 1 1071 518 )" class="stroke" mask="url(#Clip19)" />
    <path d="M 24.267578125 3.614955357142859  C 24.085286458333332 3.431919642857141  23.773871527777782 3.2641369047618998  23.333333333333332 3.111607142857141  L 23.333333333333332 11.714285714285714  L 31.901041666666668 11.714285714285714  C 31.74913194444445 11.2719494047619  31.58203125 10.95926339285714  31.399739583333332 10.776227678571427  L 24.267578125 3.614955357142859  Z " stroke-width="0" stroke-dasharray="0" stroke="rgba(255, 255, 255, 0)" fill="none" transform="matrix(1 0 0 1 1071 518 )" class="stroke" mask="url(#Clip19)" />
    <path d="M 3 38  L 32 38  L 32 14.64285714285714  L 22.604166666666668 14.64285714285714  C 21.99652777777778 14.64285714285714  21.48003472222222 14.429315476190473  21.0546875 14.00223214285714  C 20.62934027777778 13.575148809523808  20.416666666666668 13.056547619047613  20.416666666666668 12.446428571428573  L 20.416666666666668 3  L 3 3  L 3 38  Z " stroke-width="0" stroke-dasharray="0" stroke="rgba(255, 255, 255, 0)" fill="none" transform="matrix(1 0 0 1 1071 518 )" class="stroke" mask="url(#Clip19)" />
    <path d="M 17.044270833333336 19.05859375  C 17.879774305555557 21.56008184523809  18.98871527777778 23.375186011904763  20.37109375 24.50390625  C 20.872395833333336 24.900483630952383  21.510416666666668 25.327566964285715  22.28515625 25.78515625  C 23.181423611111114 25.678385416666664  24.070095486111114 25.625  24.951171875 25.625  C 27.184244791666668 25.625  28.528645833333332 25.998697916666664  28.984375 26.74609375  C 29.227430555555557 27.081659226190474  29.242621527777782 27.478236607142854  29.029947916666668 27.935825892857146  C 29.029947916666668 27.951078869047617  29.022352430555557 27.96633184523809  29.007161458333332 27.981584821428573  L 28.961588541666668 28.02734375  L 28.961588541666668 28.050223214285715  C 28.870442708333332 28.62983630952381  28.33116319444445 28.919642857142854  27.34375 28.919642857142854  C 26.614583333333332 28.919642857142854  25.741102430555557 28.76711309523809  24.723307291666668 28.462053571428573  C 23.705512152777782 28.156994047619044  22.718098958333332 27.752790178571427  21.761067708333332 27.249441964285715  C 18.40386284722222 27.615513392857146  15.426432291666666 28.2485119047619  12.828776041666666 29.1484375  C 10.504557291666666 33.144717261904766  8.666449652777779 35.142857142857146  7.314453125 35.142857142857146  C 7.086588541666667 35.142857142857146  6.873914930555555 35.089471726190474  6.676432291666667 34.982700892857146  L 6.129557291666667 34.70814732142857  C 6.1143663194444455 34.69289434523809  6.068793402777779 34.65476190476191  5.992838541666667 34.59375  C 5.8409288194444455 34.441220238095234  5.795355902777779 34.166666666666664  5.856119791666667 33.770089285714285  C 5.992838541666667 33.159970238095234  6.418185763888889 32.46214657738095  7.132161458333333 31.676618303571427  C 7.846137152777779 30.89109002976191  8.848741319444445 30.155133928571427  10.139973958333334 29.46875  C 10.352647569444445 29.331473214285715  10.527343750000002 29.377232142857146  10.6640625 29.606026785714285  C 10.694444444444445 29.636532738095237  10.709635416666666 29.667038690476186  10.709635416666666 29.697544642857146  C 11.499565972222225 28.401041666666664  12.31228298611111 26.89862351190476  13.147786458333334 25.190290178571427  C 14.180772569444445 23.115885416666664  14.970703125 21.117745535714285  15.517578125 19.195870535714285  C 15.152994791666666 17.945126488095237  14.921332465277779 16.72870163690476  14.822591145833334 15.54659598214286  C 14.723849826388891 14.36449032738095  14.77322048611111 13.392113095238095  14.970703125 12.629464285714286  C 15.137803819444445 12.019345238095237  15.45681423611111 11.714285714285714  15.927734375 11.714285714285714  L 16.40625 11.714285714285714  L 16.429036458333336 11.714285714285714  C 16.778428819444446 11.714285714285714  17.044270833333336 11.828683035714286  17.2265625 12.057477678571427  C 17.500000000000004 12.377790178571427  17.568359375000004 12.896391369047613  17.431640625 13.61328125  C 17.401258680555557 13.70479910714286  17.37087673611111 13.76581101190476  17.340494791666664 13.796316964285714  C 17.35568576388889 13.84207589285714  17.36328125 13.903087797619046  17.36328125 13.979352678571427  L 17.36328125 14.66573660714286  C 17.332899305555557 16.541852678571427  17.2265625 18.006138392857142  17.044270833333336 19.05859375  Z " stroke-width="0" stroke-dasharray="0" stroke="rgba(255, 255, 255, 0)" fill="none" transform="matrix(1 0 0 1 1071 518 )" class="stroke" mask="url(#Clip19)" />
    <path d="M 8.3740234375 32.214285714285715  C 7.819552951388889 32.885416666666664  7.443576388888889 33.449776785714285  7.24609375 33.90736607142857  C 8.036024305555555 33.541294642857146  9.076605902777779 32.336309523809526  10.367838541666666 30.292410714285715  C 9.593098958333334 30.902529761904763  8.92849392361111 31.543154761904763  8.3740234375 32.214285714285715  Z " stroke-width="0" stroke-dasharray="0" stroke="rgba(255, 255, 255, 0)" fill="none" transform="matrix(1 0 0 1 1071 518 )" class="stroke" mask="url(#Clip19)" />
    <path d="M 16.315104166666664 12.8125  L 16.315104166666664 12.858258928571427  C 16.087239583333336 13.498883928571427  16.07204861111111 14.50558035714286  16.26953125 15.878348214285714  C 16.284722222222225 15.771577380952378  16.337890625 15.4360119047619  16.429036458333336 14.871651785714286  C 16.429036458333336 14.82589285714286  16.48220486111111 14.497953869047613  16.588541666666664 13.887834821428573  C 16.60373263888889 13.826822916666664  16.634114583333336 13.76581101190476  16.6796875 13.70479910714286  C 16.66449652777778 13.689546130952378  16.656901041666664 13.6742931547619  16.656901041666664 13.659040178571427  C 16.641710069444446 13.628534226190473  16.634114583333336 13.60565476190476  16.634114583333336 13.590401785714286  C 16.61892361111111 13.254836309523808  16.520182291666664 12.980282738095237  16.337890625 12.766741071428573  C 16.337890625 12.781994047619046  16.33029513888889 12.797247023809522  16.315104166666664 12.8125  Z " stroke-width="0" stroke-dasharray="0" stroke="rgba(255, 255, 255, 0)" fill="none" transform="matrix(1 0 0 1 1071 518 )" class="stroke" mask="url(#Clip19)" />
    <path d="M 14.514973958333334 26.082589285714285  C 14.059244791666666 26.93675595238095  13.717447916666666 27.569754464285715  13.489583333333334 27.981584821428573  C 15.540364583333334 27.157924107142854  17.69748263888889 26.540178571428573  19.9609375 26.128348214285715  C 19.930555555555557 26.113095238095237  19.831814236111114 26.040643601190474  19.664713541666668 25.910993303571427  C 19.49761284722222 25.781343005952383  19.37608506944445 25.678385416666664  19.300130208333332 25.602120535714285  C 18.14561631944445 24.580171130952383  17.180989583333336 23.237909226190474  16.40625 21.575334821428573  C 15.99609375 22.887090773809522  15.365668402777779 24.389508928571427  14.514973958333334 26.082589285714285  Z " stroke-width="0" stroke-dasharray="0" stroke="rgba(255, 255, 255, 0)" fill="none" transform="matrix(1 0 0 1 1071 518 )" class="stroke" mask="url(#Clip19)" />
    <path d="M 28.255208333333332 27.684151785714285  C 28.255208333333332 27.66889880952381  28.240017361111114 27.64601934523809  28.209635416666668 27.615513392857146  C 27.845052083333332 27.249441964285715  26.781684027777782 27.06640625  25.01953125 27.06640625  C 26.17404513888889 27.49348958333333  27.115885416666668 27.70703125  27.845052083333332 27.70703125  C 28.05772569444445 27.70703125  28.19444444444445 27.69940476190476  28.255208333333332 27.684151785714285  Z " stroke-width="0" stroke-dasharray="0" stroke="rgba(255, 255, 255, 0)" fill="none" transform="matrix(1 0 0 1 1071 518 )" class="stroke" mask="url(#Clip19)" />
  </g>
</svg>