<?xml version="1.0" encoding="utf-8"?>
<svg version="1.1" xmlns:xlink="http://www.w3.org/1999/xlink" width="35px" height="41px" xmlns="http://www.w3.org/2000/svg">
  <defs>
    <pattern id="BGPattern" patternUnits="userSpaceOnUse" alignment="0 0" imageRepeat="None" />
    <mask fill="white" id="Clip20">
      <path d="M 34.08854166666667 12  L 23 12  L 23 0.9151785714285727  C 23.66753472222222 1.1287202380952364  23.94097222222222 1.3422619047619  24.153645833333332 1.5558035714285727  L 33.45052083333333 10.890625  C 33.66319444444445 11.104166666666664  33.87586805555556 11.378720238095237  34.08854166666667 12  Z M 20 0  L 20 12.446428571428573  C 20.416666666666668 13.056547619047613  20.62934027777778 13.575148809523808  21.0546875 14.00223214285714  C 21.48003472222222 14.429315476190473  21.99652777777778 14.64285714285714  22.604166666666668 15  L 35 15  L 35 38.80357142857143  C 35 39.413690476190474  34.787326388888886 39.932291666666664  34.36197916666667 40.359375  C 33.93663194444445 40.786458333333336  33.42013888888889 41  32.8125 41  L 2.1875 41  C 1.5798611111111114 41  1.0633680555555556 40.786458333333336  0.6380208333333334 40.359375  C 0.21267361111111108 39.932291666666664  0 39.413690476190474  0 38.80357142857143  L 0 2.196428571428573  C 0 1.5863095238095228  0.21267361111111108 1.0677083333333317  0.6380208333333334 0.640625  C 1.0633680555555556 0.21354166666666818  1.5798611111111114 0  2.1875 0  L 20 0  Z " fill-rule="evenodd" />
    </mask>
  </defs>
  <g transform="matrix(1 0 0 1 -1071 -588 )">
    <path d="M 34.08854166666667 12  L 23 12  L 23 0.9151785714285727  C 23.66753472222222 1.1287202380952364  23.94097222222222 1.3422619047619  24.153645833333332 1.5558035714285727  L 33.45052083333333 10.890625  C 33.66319444444445 11.104166666666664  33.87586805555556 11.378720238095237  34.08854166666667 12  Z M 20 0  L 20 12.446428571428573  C 20.416666666666668 13.056547619047613  20.62934027777778 13.575148809523808  21.0546875 14.00223214285714  C 21.48003472222222 14.429315476190473  21.99652777777778 14.64285714285714  22.604166666666668 15  L 35 15  L 35 38.80357142857143  C 35 39.413690476190474  34.787326388888886 39.932291666666664  34.36197916666667 40.359375  C 33.93663194444445 40.786458333333336  33.42013888888889 41  32.8125 41  L 2.1875 41  C 1.5798611111111114 41  1.0633680555555556 40.786458333333336  0.6380208333333334 40.359375  C 0.21267361111111108 39.932291666666664  0 39.413690476190474  0 38.80357142857143  L 0 2.196428571428573  C 0 1.5863095238095228  0.21267361111111108 1.0677083333333317  0.6380208333333334 0.640625  C 1.0633680555555556 0.21354166666666818  1.5798611111111114 0  2.1875 0  L 20 0  Z " fill-rule="nonzero" fill="rgba(0, 0, 0, 1)" stroke="none" transform="matrix(1 0 0 1 1071 588 )" class="fill" />
    <path d="M 34.08854166666667 12  L 23 12  L 23 0.9151785714285727  C 23.66753472222222 1.1287202380952364  23.94097222222222 1.3422619047619  24.153645833333332 1.5558035714285727  L 33.45052083333333 10.890625  C 33.66319444444445 11.104166666666664  33.87586805555556 11.378720238095237  34.08854166666667 12  Z " stroke-width="0" stroke-dasharray="0" stroke="rgba(255, 255, 255, 0)" fill="none" transform="matrix(1 0 0 1 1071 588 )" class="stroke" mask="url(#Clip20)" />
    <path d="M 20 0  L 20 12.446428571428573  C 20.416666666666668 13.056547619047613  20.62934027777778 13.575148809523808  21.0546875 14.00223214285714  C 21.48003472222222 14.429315476190473  21.99652777777778 14.64285714285714  22.604166666666668 15  L 35 15  L 35 38.80357142857143  C 35 39.413690476190474  34.787326388888886 39.932291666666664  34.36197916666667 40.359375  C 33.93663194444445 40.786458333333336  33.42013888888889 41  32.8125 41  L 2.1875 41  C 1.5798611111111114 41  1.0633680555555556 40.786458333333336  0.6380208333333334 40.359375  C 0.21267361111111108 39.932291666666664  0 39.413690476190474  0 38.80357142857143  L 0 2.196428571428573  C 0 1.5863095238095228  0.21267361111111108 1.0677083333333317  0.6380208333333334 0.640625  C 1.0633680555555556 0.21354166666666818  1.5798611111111114 0  2.1875 0  L 20 0  Z " stroke-width="0" stroke-dasharray="0" stroke="rgba(255, 255, 255, 0)" fill="none" transform="matrix(1 0 0 1 1071 588 )" class="stroke" mask="url(#Clip20)" />
  </g>
</svg>