<?xml version="1.0" encoding="utf-8"?>
<svg version="1.1" xmlns:xlink="http://www.w3.org/1999/xlink" width="35px" height="35px" xmlns="http://www.w3.org/2000/svg">
  <defs>
    <pattern id="BGPattern" patternUnits="userSpaceOnUse" alignment="0 0" imageRepeat="None" />
    <mask fill="white" id="Clip21">
      <path d="M 15 10  L 15 32  L 32 32  L 32 20  L 24.375 20  C 23.85416666666667 20  23.411458333333332 19.817708333333336  23.046875 19.453125  C 22.68229166666667 19.088541666666664  22.5 18.645833333333332  22.5 18.124999999999996  L 22.5 10  L 15 10  Z M 19.814453125 4.814453125000001  C 19.938151041666668 4.690755208333331  20 4.5442708333333295  20 4.375  L 20 3.1250000000000004  C 20 2.955729166666667  19.938151041666668 2.809244791666665  19.814453125 2.6855468749999996  C 19.690755208333336 2.56184895833333  19.544270833333336 2.499999999999999  19.375 3  L 5.625 3  C 5.455729166666668 2.499999999999999  5.309244791666667 2.56184895833333  5.185546875 2.6855468749999996  C 5.061848958333334 2.809244791666665  5 2.955729166666667  5 3.1250000000000004  L 5 4.375  C 5 4.5442708333333295  5.061848958333334 4.690755208333331  5.185546875 4.814453125000001  C 5.309244791666667 4.938151041666667  5.455729166666668 5.000000000000002  5.625 5  L 19.375 5  C 19.544270833333336 5.000000000000002  19.690755208333336 4.938151041666667  19.814453125 4.814453125000001  Z M 25 11.660156249999998  L 25 17.5  L 30.83984375 17.5  L 25 11.660156249999998  Z M 34.609375 18.28125  C 34.86979166666667 18.90625  35 19.479166666666668  35 20  L 35 33.125  C 35 33.645833333333336  34.817708333333336 34.088541666666664  34.453125 34.453125  C 34.08854166666667 34.817708333333336  33.645833333333336 35  33.125 35  L 14.375 35  C 13.854166666666668 35  13.411458333333334 34.817708333333336  13.046875 34.453125  C 12.682291666666668 34.088541666666664  12.5 33.645833333333336  12.5 33.125  L 12.5 30  L 1.875 30  C 1.354166666666667 30.000000000000004  0.9114583333333334 29.817708333333336  0.546875 29.453125000000004  C 0.18229166666666666 29.088541666666668  0 28.645833333333332  0 28.125  L 0 1.875000000000001  C 0 1.3541666666666656  0.18229166666666666 0.911458333333332  0.546875 0.546875  C 0.9114583333333334 0.18229166666666796  1.354166666666667 0  1.875 0  L 23.125 0  C 23.645833333333336 0  24.088541666666668 0.18229166666666796  24.453125 0.546875  C 24.817708333333336 0.911458333333332  25 1.3541666666666656  25 1.875000000000001  L 25 8.281250000000002  C 25.2734375 8.450520833333332  25.5078125 8.6328125  25.703125 8.828125000000002  L 33.671875 16.796875  C 34.036458333333336 17.161458333333332  34.348958333333336 17.65625  34.609375 18.28125  Z " fill-rule="evenodd" />
    </mask>
  </defs>
  <g transform="matrix(1 0 0 1 -1244 -323 )">
    <path d="M 15 10  L 15 32  L 32 32  L 32 20  L 24.375 20  C 23.85416666666667 20  23.411458333333332 19.817708333333336  23.046875 19.453125  C 22.68229166666667 19.088541666666664  22.5 18.645833333333332  22.5 18.124999999999996  L 22.5 10  L 15 10  Z M 19.814453125 4.814453125000001  C 19.938151041666668 4.690755208333331  20 4.5442708333333295  20 4.375  L 20 3.1250000000000004  C 20 2.955729166666667  19.938151041666668 2.809244791666665  19.814453125 2.6855468749999996  C 19.690755208333336 2.56184895833333  19.544270833333336 2.499999999999999  19.375 3  L 5.625 3  C 5.455729166666668 2.499999999999999  5.309244791666667 2.56184895833333  5.185546875 2.6855468749999996  C 5.061848958333334 2.809244791666665  5 2.955729166666667  5 3.1250000000000004  L 5 4.375  C 5 4.5442708333333295  5.061848958333334 4.690755208333331  5.185546875 4.814453125000001  C 5.309244791666667 4.938151041666667  5.455729166666668 5.000000000000002  5.625 5  L 19.375 5  C 19.544270833333336 5.000000000000002  19.690755208333336 4.938151041666667  19.814453125 4.814453125000001  Z M 25 11.660156249999998  L 25 17.5  L 30.83984375 17.5  L 25 11.660156249999998  Z M 34.609375 18.28125  C 34.86979166666667 18.90625  35 19.479166666666668  35 20  L 35 33.125  C 35 33.645833333333336  34.817708333333336 34.088541666666664  34.453125 34.453125  C 34.08854166666667 34.817708333333336  33.645833333333336 35  33.125 35  L 14.375 35  C 13.854166666666668 35  13.411458333333334 34.817708333333336  13.046875 34.453125  C 12.682291666666668 34.088541666666664  12.5 33.645833333333336  12.5 33.125  L 12.5 30  L 1.875 30  C 1.354166666666667 30.000000000000004  0.9114583333333334 29.817708333333336  0.546875 29.453125000000004  C 0.18229166666666666 29.088541666666668  0 28.645833333333332  0 28.125  L 0 1.875000000000001  C 0 1.3541666666666656  0.18229166666666666 0.911458333333332  0.546875 0.546875  C 0.9114583333333334 0.18229166666666796  1.354166666666667 0  1.875 0  L 23.125 0  C 23.645833333333336 0  24.088541666666668 0.18229166666666796  24.453125 0.546875  C 24.817708333333336 0.911458333333332  25 1.3541666666666656  25 1.875000000000001  L 25 8.281250000000002  C 25.2734375 8.450520833333332  25.5078125 8.6328125  25.703125 8.828125000000002  L 33.671875 16.796875  C 34.036458333333336 17.161458333333332  34.348958333333336 17.65625  34.609375 18.28125  Z " fill-rule="nonzero" fill="rgba(0, 0, 0, 1)" stroke="none" transform="matrix(1 0 0 1 1244 323 )" class="fill" />
    <path d="M 15 10  L 15 32  L 32 32  L 32 20  L 24.375 20  C 23.85416666666667 20  23.411458333333332 19.817708333333336  23.046875 19.453125  C 22.68229166666667 19.088541666666664  22.5 18.645833333333332  22.5 18.124999999999996  L 22.5 10  L 15 10  Z " stroke-width="0" stroke-dasharray="0" stroke="rgba(255, 255, 255, 0)" fill="none" transform="matrix(1 0 0 1 1244 323 )" class="stroke" mask="url(#Clip21)" />
    <path d="M 19.814453125 4.814453125000001  C 19.938151041666668 4.690755208333331  20 4.5442708333333295  20 4.375  L 20 3.1250000000000004  C 20 2.955729166666667  19.938151041666668 2.809244791666665  19.814453125 2.6855468749999996  C 19.690755208333336 2.56184895833333  19.544270833333336 2.499999999999999  19.375 3  L 5.625 3  C 5.455729166666668 2.499999999999999  5.309244791666667 2.56184895833333  5.185546875 2.6855468749999996  C 5.061848958333334 2.809244791666665  5 2.955729166666667  5 3.1250000000000004  L 5 4.375  C 5 4.5442708333333295  5.061848958333334 4.690755208333331  5.185546875 4.814453125000001  C 5.309244791666667 4.938151041666667  5.455729166666668 5.000000000000002  5.625 5  L 19.375 5  C 19.544270833333336 5.000000000000002  19.690755208333336 4.938151041666667  19.814453125 4.814453125000001  Z " stroke-width="0" stroke-dasharray="0" stroke="rgba(255, 255, 255, 0)" fill="none" transform="matrix(1 0 0 1 1244 323 )" class="stroke" mask="url(#Clip21)" />
    <path d="M 25 11.660156249999998  L 25 17.5  L 30.83984375 17.5  L 25 11.660156249999998  Z " stroke-width="0" stroke-dasharray="0" stroke="rgba(255, 255, 255, 0)" fill="none" transform="matrix(1 0 0 1 1244 323 )" class="stroke" mask="url(#Clip21)" />
    <path d="M 34.609375 18.28125  C 34.86979166666667 18.90625  35 19.479166666666668  35 20  L 35 33.125  C 35 33.645833333333336  34.817708333333336 34.088541666666664  34.453125 34.453125  C 34.08854166666667 34.817708333333336  33.645833333333336 35  33.125 35  L 14.375 35  C 13.854166666666668 35  13.411458333333334 34.817708333333336  13.046875 34.453125  C 12.682291666666668 34.088541666666664  12.5 33.645833333333336  12.5 33.125  L 12.5 30  L 1.875 30  C 1.354166666666667 30.000000000000004  0.9114583333333334 29.817708333333336  0.546875 29.453125000000004  C 0.18229166666666666 29.088541666666668  0 28.645833333333332  0 28.125  L 0 1.875000000000001  C 0 1.3541666666666656  0.18229166666666666 0.911458333333332  0.546875 0.546875  C 0.9114583333333334 0.18229166666666796  1.354166666666667 0  1.875 0  L 23.125 0  C 23.645833333333336 0  24.088541666666668 0.18229166666666796  24.453125 0.546875  C 24.817708333333336 0.911458333333332  25 1.3541666666666656  25 1.875000000000001  L 25 8.281250000000002  C 25.2734375 8.450520833333332  25.5078125 8.6328125  25.703125 8.828125000000002  L 33.671875 16.796875  C 34.036458333333336 17.161458333333332  34.348958333333336 17.65625  34.609375 18.28125  Z " stroke-width="0" stroke-dasharray="0" stroke="rgba(255, 255, 255, 0)" fill="none" transform="matrix(1 0 0 1 1244 323 )" class="stroke" mask="url(#Clip21)" />
  </g>
</svg>