<?xml version="1.0" encoding="utf-8"?>
<svg version="1.1" xmlns:xlink="http://www.w3.org/1999/xlink" width="653px" height="401px" viewBox="639 246 653 401" xmlns="http://www.w3.org/2000/svg">
  <defs>
    <linearGradient gradientUnits="userSpaceOnUse" x1="960.5" y1="246" x2="960.5" y2="637" id="LinearGradient5">
      <stop id="Stop6" stop-color="#555555" offset="0" />
      <stop id="Stop7" stop-color="#000000" offset="1" />
    </linearGradient>
  </defs>
  <path d="M 639 266  A 20 20 0 0 1 659 246 L 1262 246  A 20 20 0 0 1 1282 266 L 1282 617  A 20 20 0 0 1 1262 637 L 659 637  A 20 20 0 0 1 639 617 L 639 266  Z " fill-rule="nonzero" fill="rgba(255, 255, 255, 1)" stroke="none" class="fill" />
  <path d="M 640 266  A 19 19 0 0 1 659 247 L 1262 247  A 19 19 0 0 1 1281 266 L 1281 617  A 19 19 0 0 1 1262 636 L 659 636  A 19 19 0 0 1 640 617 L 640 266  Z " stroke-width="2" stroke-dasharray="0" stroke="url(#LinearGradient5)" fill="none" class="stroke" />
  <style>svg { filter: drop-shadow(5px 5px 2.5px rgba(0, 0, 0, 0.34901960784313724)); }</style>
</svg>